<?xml version="1.0" encoding="utf-8"?>
<!-- Generator: Adobe Illustrator 28.3.0, SVG Export Plug-In . SVG Version: 6.00 Build 0)  -->
<svg version="1.1" id="Layer_1" xmlns="http://www.w3.org/2000/svg" xmlns:xlink="http://www.w3.org/1999/xlink" x="0px" y="0px"
	 viewBox="0 0 354.97 354.96" style="enable-background:new 0 0 354.97 354.96;" xml:space="preserve">
<style type="text/css">
	.st0{fill:#3358A5;}
</style>
<g>
	<path class="st0" d="M88.53,23.85C35.59,54.58,0,111.85,0,177.48c65.62,0,122.89-35.59,153.63-88.53
		c24.39-42.02-23.08-89.45-65.07-65.09"/>
	<path class="st0" d="M331.11,88.53C300.41,35.59,243.11,0,177.49,0c0,65.62,35.59,122.9,88.53,153.63
		C308.04,178.02,355.47,130.55,331.11,88.53z"/>
	<path class="st0" d="M23.86,266.42c30.7,52.94,88,88.53,153.63,88.53c0-65.62-35.59-122.9-88.53-153.63
		C46.94,176.94-0.5,224.41,23.89,266.4"/>
	<path class="st0" d="M354.97,177.49c-65.62,0-122.92,35.59-153.63,88.53c-24.39,42.02,23.08,89.45,65.07,65.09
		c52.94-30.7,88.53-88,88.53-153.63"/>
</g>
</svg>
