<svg width="24" height="24" viewBox="0 0 24 24" fill="none" xmlns="http://www.w3.org/2000/svg">
<path d="M14.3088 15.1987C14.8327 15.3733 15.399 15.0902 15.5737 14.5662C15.7483 14.0423 15.4652 13.476 14.9412 13.3013L14.3088 15.1987ZM11.25 13.125H10.25C10.25 13.5554 10.5254 13.9376 10.9338 14.0737L11.25 13.125ZM12.25 8.42087C12.25 7.86858 11.8023 7.42087 11.25 7.42087C10.6977 7.42087 10.25 7.86858 10.25 8.42087H12.25ZM19.25 12C19.25 12.5523 19.6977 13 20.25 13C20.8023 13 21.25 12.5523 21.25 12H19.25ZM19.9116 17.0007C20.1881 16.5227 20.0247 15.9109 19.5467 15.6344C19.0686 15.3579 18.4569 15.5212 18.1804 15.9993L19.9116 17.0007ZM18.4882 10.3052C18.0976 9.91471 17.4645 9.91471 17.0739 10.3052C16.6834 10.6958 16.6834 11.3289 17.0739 11.7195L18.4882 10.3052ZM20.0311 13.2623L19.3239 13.9695C19.7145 14.36 20.3476 14.36 20.7382 13.9695L20.0311 13.2623ZM22.9882 11.7195C23.3787 11.3289 23.3787 10.6958 22.9882 10.3052C22.5976 9.91471 21.9645 9.91471 21.5739 10.3052L22.9882 11.7195ZM14.9412 13.3013L11.5662 12.1763L10.9338 14.0737L14.3088 15.1987L14.9412 13.3013ZM12.25 13.125V8.42087H10.25V13.125H12.25ZM11.25 20C6.83172 20 3.25 16.4183 3.25 12H1.25C1.25 17.5228 5.72715 22 11.25 22V20ZM3.25 12C3.25 7.58172 6.83172 4 11.25 4V2C5.72715 2 1.25 6.47715 1.25 12H3.25ZM11.25 4C15.6683 4 19.25 7.58172 19.25 12H21.25C21.25 6.47715 16.7728 2 11.25 2V4ZM18.1804 15.9993C16.7956 18.3931 14.2099 20 11.25 20V22C14.9527 22 18.184 19.9871 19.9116 17.0007L18.1804 15.9993ZM17.0739 11.7195L19.3239 13.9695L20.7382 12.5552L18.4882 10.3052L17.0739 11.7195ZM20.7382 13.9695L22.9882 11.7195L21.5739 10.3052L19.3239 12.5552L20.7382 13.9695Z" fill="#0051FF"/>
</svg>
