<svg width="30" height="30" viewBox="0 0 20 21" fill="none" xmlns="http://www.w3.org/2000/svg">
<mask id="mask0_436_3755" style="mask-type:alpha" maskUnits="userSpaceOnUse" x="0" y="0" width="20" height="21">
<rect y="0.5" width="20" height="20" fill="#D9D9D9"/>
</mask>
<g mask="url(#mask0_436_3755)">
<path d="M3.5 16.5C3.0875 16.5 2.73438 16.353 2.44063 16.0591C2.14688 15.7652 2 15.4119 2 14.9992V5.9941C2 5.58137 2.14688 5.22917 2.44063 4.9375C2.73438 4.64583 3.0875 4.5 3.5 4.5H16.5C16.9125 4.5 17.2656 4.64696 17.5594 4.94087C17.8531 5.23479 18 5.58811 18 6.00083V15.0059C18 15.4186 17.8531 15.7708 17.5594 16.0625C17.2656 16.3542 16.9125 16.5 16.5 16.5H3.5ZM10 11.5L3.5 7.77083V15H16.5V7.77083L10 11.5ZM10 9.72917L16.5 6H3.5L10 9.72917ZM3.5 7.77083V6V15V7.77083Z" fill="#8D979C"/>
</g>
</svg>
