<svg width="24" height="24" viewBox="0 0 24 24" fill="none" xmlns="http://www.w3.org/2000/svg">
<path d="M19.9333 19.4021L20.6341 20.1155C20.7159 20.0351 20.7833 19.9412 20.8333 19.838L19.9333 19.4021ZM18.4907 20.8737L19.2204 21.5575C19.2313 21.5459 19.2419 21.534 19.2523 21.5218L18.4907 20.8737ZM16.5581 21.5958L16.6245 20.598L16.6218 20.5978L16.5581 21.5958ZM12.9859 20.5264L12.5509 21.4268L12.5552 21.4288L12.9859 20.5264ZM6.22631 15.243L5.45734 15.8823L5.4604 15.886L6.22631 15.243ZM2.92893 9.76321L3.86653 9.41549L3.86549 9.41269L2.92893 9.76321ZM2.416 6.90217L1.41964 6.81684L1.41936 6.82031L2.416 6.90217ZM3.048 5.54478L3.75438 6.25261H3.75438L3.048 5.54478ZM4.60968 3.9863L3.92599 3.25652C3.91831 3.26372 3.91074 3.27103 3.90329 3.27847L4.60968 3.9863ZM5.97443 3.98173L5.26804 4.68956L5.97443 3.98173ZM5.98817 3.99544L5.28178 4.70327C5.28978 4.71124 5.29791 4.71909 5.30617 4.72679L5.98817 3.99544ZM6.81251 4.81353L6.0948 5.50987L6.09498 5.51006L6.81251 4.81353ZM7.24758 5.25685L6.53039 5.95373C6.53397 5.95741 6.53757 5.96106 6.5412 5.96468L7.24758 5.25685ZM8.49784 6.50455L7.79146 7.21238L8.49784 6.50455ZM8.10399 8.31441L7.41013 7.5943C7.40309 7.60107 7.39616 7.60795 7.38932 7.61494L8.10399 8.31441ZM7.62306 8.76236L6.95627 8.01711C6.94273 8.02922 6.92953 8.0417 6.91667 8.05453L7.62306 8.76236ZM7.60016 8.78521L8.30654 9.49304C8.38267 9.41707 8.44604 9.32931 8.49422 9.23316L7.60016 8.78521ZM7.36201 9.82268L6.40861 10.1244C6.41021 10.1294 6.41185 10.1345 6.41353 10.1395L7.36201 9.82268ZM7.37575 9.86381L6.42726 10.1806C6.43464 10.2027 6.44279 10.2245 6.45169 10.246L7.37575 9.86381ZM8.855 12.2724L8.07 12.8919C8.09444 12.9228 8.12069 12.9523 8.14861 12.9802L8.855 12.2724ZM8.85958 12.277L9.63534 11.6459C9.61355 11.6191 9.5904 11.5935 9.56596 11.5691L8.85958 12.277ZM12.9263 15.9698L13.4611 15.1248L13.4601 15.1241L12.9263 15.9698ZM13.943 16.5182L13.4165 17.3683C13.4425 17.3845 13.4692 17.3994 13.4966 17.413L13.943 16.5182ZM13.998 16.5502L14.4445 15.6554L13.998 16.5502ZM16.0452 15.4533L15.3388 14.7454L16.0452 15.4533ZM17.3962 15.4441L16.6579 16.1186C16.6683 16.13 16.6789 16.1411 16.6898 16.152L17.3962 15.4441ZM17.4054 15.4533L18.1117 14.7454L18.1117 14.7454L17.4054 15.4533ZM19.9288 17.9715L19.2224 18.6794L19.2258 18.6828L19.9288 17.9715ZM13.0368 5.34008C12.4921 5.24879 11.9765 5.61634 11.8852 6.16103C11.7939 6.70572 12.1615 7.22128 12.7062 7.31257L13.0368 5.34008ZM16.6855 11.2857C16.7792 11.8299 17.2963 12.1952 17.8406 12.1016C18.3849 12.0079 18.7502 11.4907 18.6565 10.9464L16.6855 11.2857ZM13.2215 1.4144C12.6769 1.32227 12.1608 1.68903 12.0687 2.23358C11.9766 2.77813 12.3433 3.29425 12.8879 3.38638L13.2215 1.4144ZM18.6831 5.3117L19.3895 4.60387L19.3885 4.60282L18.6831 5.3117ZM20.6145 11.0961C20.707 11.6406 21.2234 12.007 21.7679 11.9145C22.3123 11.822 22.6788 11.3057 22.5863 10.7612L20.6145 11.0961ZM19.9333 19.4021C19.2326 18.6886 19.2326 18.6886 19.2326 18.6886C19.2326 18.6887 19.2326 18.6887 19.2325 18.6887C19.2325 18.6887 19.2324 18.6888 19.2323 18.6889C19.2322 18.6891 19.2319 18.6893 19.2316 18.6896C19.231 18.6902 19.2302 18.691 19.229 18.6922C19.2267 18.6944 19.2234 18.6977 19.219 18.702C19.2102 18.7106 19.1974 18.7232 19.1811 18.7393C19.1484 18.7716 19.1015 18.8178 19.0444 18.8743C18.9303 18.9873 18.7749 19.1416 18.6103 19.3068C18.2964 19.6216 17.9027 20.0218 17.7292 20.2256L19.2523 21.5218C19.3627 21.392 19.6903 21.0563 20.0268 20.7187C20.1873 20.5577 20.3393 20.4067 20.4513 20.2958C20.5073 20.2404 20.5531 20.1952 20.5849 20.1639C20.6008 20.1482 20.6132 20.136 20.6215 20.1278C20.6257 20.1237 20.6289 20.1206 20.631 20.1185C20.6321 20.1175 20.6328 20.1167 20.6334 20.1162C20.6336 20.1159 20.6338 20.1157 20.6339 20.1156C20.634 20.1156 20.634 20.1155 20.634 20.1155C20.6341 20.1155 20.6341 20.1155 20.6341 20.1155C20.6341 20.1155 20.6341 20.1155 19.9333 19.4021ZM17.7611 20.1899C17.4959 20.4729 17.2191 20.6004 16.7688 20.6004V22.6004C17.7473 22.6004 18.5605 22.2617 19.2204 21.5575L17.7611 20.1899ZM16.7688 20.6004C16.6935 20.6004 16.6542 20.6 16.6245 20.598L16.4917 22.5936C16.5994 22.6008 16.7066 22.6004 16.7688 22.6004V20.6004ZM16.6218 20.5978C15.4621 20.5238 14.3424 20.0657 13.4167 19.6239L12.5552 21.4288C13.5255 21.8919 14.9338 22.4941 16.4944 22.5938L16.6218 20.5978ZM13.4209 19.6259C10.9586 18.4364 8.79461 16.7472 6.99223 14.6001L5.4604 15.886C7.44084 18.2452 9.82902 20.1118 12.5509 21.4268L13.4209 19.6259ZM6.99527 14.6037C5.49023 12.7935 4.51104 11.1534 3.86653 9.41549L1.99133 10.1109C2.72988 12.1024 3.83904 13.9358 5.45735 15.8823L6.99527 14.6037ZM3.86549 9.41269C3.4712 8.35917 3.35994 7.62575 3.41265 6.98403L1.41936 6.82031C1.33467 7.85134 1.53484 8.89121 1.99237 10.1137L3.86549 9.41269ZM3.41235 6.9875C3.43805 6.68753 3.5417 6.46486 3.75438 6.25261L2.34162 4.83695C1.79407 5.38338 1.48555 6.04735 1.41965 6.81684L3.41235 6.9875ZM3.75438 6.25261L5.31606 4.69413L3.90329 3.27847L2.34162 4.83695L3.75438 6.25261ZM5.29337 4.71607C5.34439 4.66827 5.37474 4.65255 5.37938 4.65036C5.38185 4.64921 5.35528 4.6618 5.30579 4.6618V2.6618C4.73564 2.6618 4.26501 2.93891 3.92599 3.25652L5.29337 4.71607ZM5.30579 4.6618C5.27654 4.6618 5.25244 4.65727 5.23577 4.6525C5.21991 4.64795 5.21241 4.64367 5.21338 4.64421C5.21449 4.64481 5.22086 4.64851 5.23182 4.65709C5.24265 4.66559 5.25497 4.67651 5.26804 4.68956L6.68081 3.2739C6.47181 3.06532 5.99483 2.6618 5.30579 2.6618V4.6618ZM5.26804 4.68956C5.27032 4.69183 5.27261 4.69411 5.2749 4.69639C5.27718 4.69868 5.27948 4.70097 5.28178 4.70327L6.69455 3.28761C6.69227 3.28533 6.68999 3.28305 6.6877 3.28077C6.68541 3.27848 6.68311 3.27619 6.68081 3.2739L5.26804 4.68956ZM5.30617 4.72679C5.56621 4.96929 5.81734 5.2239 6.0948 5.50987L7.53022 4.11718C7.24896 3.82729 6.96884 3.54261 6.67016 3.26408L5.30617 4.72679ZM6.09498 5.51006C6.16924 5.58655 6.24419 5.66253 6.31644 5.73577C6.38961 5.80993 6.46021 5.88149 6.53039 5.95373L7.96477 4.55997C7.88841 4.48138 7.81246 4.40441 7.74022 4.33118C7.66707 4.25703 7.59776 4.18676 7.53004 4.117L6.09498 5.51006ZM6.5412 5.96468L7.79146 7.21238L9.20422 5.79672L7.95397 4.54902L6.5412 5.96468ZM7.79146 7.21238C7.82522 7.24608 7.84791 7.27266 7.86256 7.29183C7.87717 7.31094 7.88214 7.32055 7.8821 7.32047C7.88187 7.32002 7.87649 7.30943 7.87128 7.28936C7.86869 7.27941 7.86631 7.26773 7.86459 7.25453C7.86287 7.24131 7.86193 7.22736 7.86193 7.21296C7.86193 7.19855 7.86287 7.1846 7.86459 7.17138C7.86631 7.15818 7.86869 7.1465 7.87128 7.13655C7.87649 7.11649 7.88187 7.10589 7.8821 7.10545C7.88214 7.10536 7.87717 7.11497 7.86256 7.13409C7.84791 7.15325 7.82522 7.17983 7.79146 7.21353L9.20422 8.62919C9.54192 8.29218 9.86193 7.81914 9.86193 7.21296C9.86193 6.60677 9.54192 6.13373 9.20422 5.79672L7.79146 7.21238ZM7.79146 7.21353C7.64111 7.36357 7.53556 7.47344 7.41013 7.5943L8.79784 9.03452C8.93804 8.89944 9.08895 8.74423 9.20422 8.62919L7.79146 7.21353ZM7.38932 7.61494C7.28792 7.71855 7.2417 7.76622 7.20918 7.79933C7.17137 7.83781 7.1976 7.80912 7.23508 7.77843C7.24122 7.7734 7.25958 7.75901 7.23345 7.77941C7.21739 7.79195 7.19821 7.80726 7.17325 7.82799C7.12609 7.86717 7.06003 7.92428 6.95627 8.01711L8.28984 9.50761C8.3853 9.4222 8.43088 9.38332 8.45114 9.3665C8.45988 9.35924 8.46336 9.35654 8.46432 9.35579C8.46819 9.35277 8.46497 9.3553 8.47339 9.34876C8.4786 9.34471 8.48944 9.33627 8.50227 9.32576C8.56209 9.27677 8.6098 9.2275 8.63598 9.20084C8.66744 9.16881 8.72771 9.10679 8.81865 9.01388L7.38932 7.61494ZM6.91667 8.05453C6.9435 8.02776 6.96586 8.00882 6.97443 8.00166C6.97776 7.99887 6.98154 7.99577 6.97807 7.99862C6.97664 7.9998 6.96899 8.00607 6.95988 8.01386C6.92767 8.04141 6.79985 8.15015 6.7061 8.33727L8.49422 9.23316C8.40505 9.41114 8.2841 9.51302 8.2599 9.53371C8.25601 9.53704 8.25288 9.53965 8.25098 9.54124C8.25 9.54205 8.24922 9.5427 8.24873 9.5431C8.24825 9.5435 8.24792 9.54377 8.24791 9.54378C8.24657 9.54488 8.25254 9.53999 8.25809 9.53535C8.27109 9.52447 8.29803 9.50153 8.32944 9.47019L6.91667 8.05453ZM6.89377 8.07738C6.54616 8.42429 6.35721 8.82402 6.30914 9.23843C6.26422 9.62569 6.35267 9.94759 6.40861 10.1244L8.31542 9.52099C8.30927 9.50155 8.30508 9.48685 8.3021 9.47501C8.29914 9.4633 8.29773 9.45577 8.29707 9.45156C8.2958 9.44339 8.29789 9.45104 8.29582 9.46887C8.29479 9.47773 8.29291 9.4875 8.29002 9.4974C8.28712 9.50737 8.28386 9.51519 8.28127 9.52041C8.27872 9.52556 8.27789 9.52603 8.28088 9.52193C8.28396 9.51772 8.29167 9.50789 8.30654 9.49304L6.89377 8.07738ZM6.41353 10.1395C6.41582 10.1463 6.41811 10.1532 6.4204 10.1601C6.42269 10.1669 6.42498 10.1738 6.42726 10.1806L8.32424 9.547C8.32195 9.54014 8.31966 9.53328 8.31737 9.52643C8.31508 9.51957 8.31279 9.51272 8.3105 9.50587L6.41353 10.1395ZM6.45169 10.246C6.8222 11.1418 7.336 11.9618 8.07 12.8919L9.63999 11.6529C8.98176 10.8188 8.57963 10.158 8.29982 9.48158L6.45169 10.246ZM8.14861 12.9802L8.15319 12.9848L9.56596 11.5691L9.56138 11.5646L8.14861 12.9802ZM8.08381 12.908C9.4058 14.5332 10.8177 15.8215 12.3926 16.8155L13.4601 15.1241C12.0949 14.2625 10.8413 13.1285 9.63534 11.6459L8.08381 12.908ZM12.3916 16.8148C12.6288 16.9649 12.8659 17.0823 13.0432 17.1708L13.9361 15.3812C13.747 15.2868 13.5994 15.2123 13.4611 15.1248L12.3916 16.8148ZM13.0432 17.1708C13.2188 17.2584 13.3303 17.315 13.4165 17.3683L14.4696 15.6681C14.2901 15.5569 14.0903 15.4581 13.9361 15.3812L13.0432 17.1708ZM13.4966 17.413C13.4724 17.401 13.4547 17.3907 13.447 17.3861C13.4401 17.382 13.435 17.3788 13.4413 17.3827C13.4442 17.3845 13.4585 17.3935 13.4745 17.403C13.4914 17.413 13.5182 17.4284 13.5515 17.445L14.4445 15.6554C14.4686 15.6675 14.4863 15.6778 14.494 15.6823C14.5009 15.6864 14.506 15.6897 14.4997 15.6857C14.4969 15.6839 14.4826 15.675 14.4665 15.6655C14.4497 15.6555 14.4228 15.6401 14.3895 15.6234L13.4966 17.413ZM13.5515 17.445C13.8271 17.5825 14.1255 17.6645 14.4514 17.6645V15.6645C14.4542 15.6645 14.4578 15.6647 14.4618 15.6652C14.4658 15.6656 14.4687 15.6663 14.4702 15.6667C14.4737 15.6675 14.4659 15.6661 14.4445 15.6554L13.5515 17.445ZM14.4514 17.6645C15.2657 17.6645 15.7583 17.1523 15.8539 17.057L14.4411 15.6413C14.4315 15.6509 14.4274 15.655 14.423 15.6591C14.4191 15.6628 14.4159 15.6657 14.4131 15.668C14.4072 15.673 14.4039 15.6751 14.4034 15.6754C14.4031 15.6756 14.408 15.6726 14.4177 15.6697C14.4226 15.6682 14.4283 15.6668 14.4345 15.6658C14.4408 15.6649 14.4466 15.6645 14.4514 15.6645V17.6645ZM15.8539 17.057L16.7516 16.1611L15.3388 14.7454L14.4411 15.6413L15.8539 17.057ZM16.7516 16.1611C16.7684 16.1443 16.785 16.1294 16.8006 16.117C16.8164 16.1044 16.8274 16.0974 16.8329 16.0944C16.8383 16.0913 16.8334 16.0948 16.818 16.0995C16.8018 16.1044 16.7738 16.1105 16.7367 16.1105V14.1105C16.0338 14.1105 15.5395 14.5451 15.3388 14.7454L16.7516 16.1611ZM16.7367 16.1105C16.665 16.1105 16.624 16.0876 16.6224 16.0866C16.6211 16.0859 16.6251 16.0881 16.6332 16.0948C16.6412 16.1015 16.6498 16.1098 16.6579 16.1186L18.1345 14.7696C17.9186 14.5334 17.4363 14.1105 16.7367 14.1105V16.1105ZM16.6898 16.152C16.6921 16.1543 16.6933 16.1555 16.6945 16.1566C16.6956 16.1578 16.6967 16.1589 16.699 16.1611L18.1117 14.7454C18.1094 14.7431 18.1082 14.7419 18.1071 14.7408C18.1059 14.7397 18.1048 14.7386 18.1026 14.7363L16.6898 16.152ZM16.699 16.1611L19.2224 18.6794L20.6351 17.2637L18.1117 14.7454L16.699 16.1611ZM19.2258 18.6828C19.1516 18.6094 19.139 18.5361 19.1388 18.5348C19.1387 18.5346 19.1392 18.5379 19.1395 18.5449C19.1397 18.5519 19.1397 18.5617 19.139 18.5744C19.1376 18.6004 19.1336 18.6332 19.1261 18.672C19.1107 18.7516 19.0856 18.8315 19.062 18.8947C19.0507 18.9249 19.0411 18.9479 19.0353 18.9612C19.0325 18.9678 19.0307 18.9717 19.0302 18.9727C19.03 18.9732 19.0301 18.9729 19.0306 18.9718C19.0309 18.9713 19.0312 18.9705 19.0317 18.9696C19.0319 18.9691 19.0322 18.9686 19.0325 18.968C19.0326 18.9677 19.0327 18.9674 19.0329 18.9671C19.033 18.9669 19.0331 18.9667 19.0331 18.9666C19.0332 18.9664 19.0334 18.9661 19.9333 19.4021C20.8333 19.838 20.8334 19.8377 20.8336 19.8375C20.8336 19.8374 20.8337 19.8371 20.8338 19.8369C20.834 19.8365 20.8342 19.8362 20.8344 19.8357C20.8348 19.8349 20.8352 19.8341 20.8357 19.8331C20.8366 19.8312 20.8376 19.8291 20.8387 19.8267C20.841 19.822 20.8436 19.8162 20.8467 19.8095C20.8529 19.7961 20.8607 19.7789 20.8697 19.7582C20.8876 19.7169 20.9108 19.6609 20.936 19.5934C20.9852 19.4613 21.0474 19.271 21.0898 19.0512C21.1597 18.6896 21.2484 17.8697 20.6317 17.2603L19.2258 18.6828ZM12.7062 7.31257C13.697 7.47863 14.599 7.94576 15.3251 8.67033L16.7378 7.25467C15.7236 6.24252 14.4457 5.5762 13.0368 5.34008L12.7062 7.31257ZM15.3251 8.67033C16.0493 9.3931 16.5146 10.293 16.6855 11.2857L18.6565 10.9464C18.4152 9.5442 17.7539 8.26864 16.7378 7.25467L15.3251 8.67033ZM12.8879 3.38638C14.8148 3.71238 16.574 4.62376 17.9778 6.02057L19.3885 4.60282C17.6964 2.91923 15.5628 1.81051 13.2215 1.4144L12.8879 3.38638ZM17.9767 6.01953C19.3792 7.41911 20.2879 9.17324 20.6145 11.0961L22.5863 10.7612C22.1893 8.42449 21.0829 6.29383 19.3895 4.60387L17.9767 6.01953Z" fill="#0051FF"/>
</svg>
