<svg width="119" height="48" viewBox="0 0 119 48" fill="none" xmlns="http://www.w3.org/2000/svg">
<g clip-path="url(#clip0_441_14498)">
<mask id="mask0_441_14498" style="mask-type:luminance" maskUnits="userSpaceOnUse" x="-273" y="-94" width="608" height="342">
<path d="M334.105 -93.1582H-272.211V247.894H334.105V-93.1582Z" fill="white"/>
</mask>
<g mask="url(#mask0_441_14498)">
<path d="M141.316 -19.9961H-22.5791V69.0565H141.316V-19.9961Z" stroke="#B3B3B3" stroke-width="0.315789" stroke-miterlimit="10"/>
<mask id="mask1_441_14498" style="mask-type:luminance" maskUnits="userSpaceOnUse" x="-273" y="-94" width="608" height="342">
<path d="M334.105 -93.1562H-272.211V247.896H334.105V-93.1562Z" fill="white"/>
</mask>
<g mask="url(#mask1_441_14498)">
<path d="M12.5337 7.16657C6.54953 10.6403 2.52637 17.1139 2.52637 24.5318C9.94426 24.5318 16.4179 20.5087 19.8916 14.5245C22.6485 9.77499 17.2832 4.41289 12.5369 7.16657" fill="#3358A5"/>
<path d="M39.9541 14.4781C36.4836 8.49386 30.0068 4.4707 22.5889 4.4707C22.5889 11.8886 26.612 18.3623 32.5962 21.836C37.3457 24.5928 42.7078 19.2275 39.9541 14.4781Z" fill="#3358A5"/>
<path d="M5.22348 34.5862C8.694 40.5704 15.1709 44.5936 22.5888 44.5936C22.5888 37.1757 18.5656 30.702 12.5814 27.2283C7.83191 24.4715 2.46979 29.8367 5.22664 34.5831" fill="#3358A5"/>
<path d="M42.6502 24.5332C35.2323 24.5332 28.7555 28.5564 25.285 34.5406C22.5281 39.29 27.8934 44.6522 32.6397 41.8985C38.6239 38.4279 42.6471 31.9511 42.6471 24.5332" fill="#3358A5"/>
<path d="M59.6965 12.3404C59.5102 12.7856 58.8564 13.1298 58.1301 13.1298C56.5638 13.1298 55.9102 12.053 55.9102 10.5088C55.9102 8.74984 56.8291 7.75195 58.3449 7.75195C59.4375 7.75195 60.1764 8.23195 60.268 9.48247L59.6364 9.5488C59.5512 8.7088 59.1343 8.32984 58.3228 8.32984C57.2238 8.32984 56.5922 9.10669 56.5922 10.4551C56.5922 12.0625 57.2965 12.5741 58.2596 12.5741C59.2228 12.5741 59.6459 11.9425 59.6459 11.333V10.8877H58.2659V10.3477H60.268V13.0477H59.788L59.6965 12.3435V12.3404Z" fill="#14192F"/>
<path d="M63.3819 9.95674C62.9209 9.89358 62.3777 10.0799 62.0746 10.3578V13.042H61.4209V9.35043H61.9672L62.0177 9.88096C62.3399 9.44201 62.7283 9.27148 63.2462 9.27148C63.2904 9.27148 63.3188 9.27148 63.3819 9.2778V9.95359V9.95674Z" fill="#14192F"/>
<path d="M64.0207 9.35156H64.6744V11.7579C64.6744 12.2695 64.7976 12.5474 65.3408 12.5474C65.7639 12.5474 66.2155 12.2758 66.4113 12.0958V9.35156H67.065V13.0431H66.4965L66.4523 12.62C66.0923 12.9137 65.6565 13.1158 65.145 13.1158C64.3618 13.1158 64.0176 12.6863 64.0176 11.8589V9.35156H64.0207Z" fill="#14192F"/>
<path d="M68.8578 12.2103C69.0157 12.3334 69.382 12.5766 69.8052 12.5766C70.5094 12.5766 70.7683 11.9892 70.7683 11.105C70.7683 10.2208 70.4809 9.81976 69.8936 9.81976C69.483 9.81976 69.0757 10.0724 68.861 10.2871V12.2103H68.8578ZM68.2041 9.35238H68.7725L68.8073 9.77555C69.1452 9.47239 69.562 9.27344 70.0862 9.27344C70.863 9.27344 71.4378 9.75344 71.4378 11.1113C71.4378 12.5545 70.7273 13.1292 69.8999 13.1292C69.4546 13.1292 69.1041 12.9713 68.8388 12.7692V14.5629H68.2073V9.34923L68.2041 9.35238Z" fill="#14192F"/>
<path d="M74.9118 11.1694C74.9118 10.1494 74.5519 9.81148 73.914 9.81148C73.2761 9.81148 72.8213 10.1999 72.8213 11.182C72.8213 12.1641 73.1655 12.6031 73.8855 12.6031C74.5234 12.6031 74.9118 12.2146 74.9118 11.1662M72.1487 11.2104C72.1487 10.0199 72.7645 9.27148 73.9424 9.27148C75.1203 9.27148 75.5939 10.0262 75.5939 11.1252C75.5939 12.3378 75.0918 13.1273 73.8476 13.1273C72.6034 13.1273 72.1455 12.3031 72.1455 11.2104" fill="#14192F"/>
</g>
<path d="M70.4783 31.2206H67.6898V23.1395H67.5224L64.6267 29.5469H61.7846L58.8856 23.1395H58.7182V31.2206H55.9141V17.8438H59.3877L63.1393 26.4837H63.3067L67.0204 17.8438H70.4783V31.2206Z" fill="#14192F"/>
<path d="M75.5929 17.8438H72.7129V31.2174H75.5929V17.8438Z" fill="#14192F"/>
<mask id="mask2_441_14498" style="mask-type:luminance" maskUnits="userSpaceOnUse" x="-273" y="-94" width="608" height="342">
<path d="M334.105 -93.1562H-272.211V247.896H334.105V-93.1562Z" fill="white"/>
</mask>
<g mask="url(#mask2_441_14498)">
<path d="M84.3351 31.2213C80.2299 31.2213 77.833 28.3982 77.833 24.5708C77.833 20.7434 80.432 17.8477 84.3351 17.8477C87.3636 17.8477 89.7951 19.4077 90.2057 22.3982H87.1235C86.732 21.2108 85.7498 20.4877 84.3383 20.4877C82.2193 20.4877 80.773 22.234 80.773 24.574C80.773 27.0434 82.3709 28.5876 84.3383 28.5876C85.8793 28.5876 86.9751 27.8456 87.3288 26.7498H90.4299C90.0383 29.6677 87.4014 31.2277 84.3383 31.2277" fill="#14192F"/>
<path d="M97.1051 28.5806C98.0335 28.5806 98.5166 28.0059 98.5166 26.8911V17.8438H101.378V26.9638C101.378 29.749 99.6882 31.2174 97.1051 31.2174C94.2819 31.2174 92.7029 29.6006 92.665 27.0016H95.6745C95.7314 27.9301 96.1577 28.5806 97.1051 28.5806Z" fill="#14192F"/>
<path d="M110.119 31.2213C106.014 31.2213 103.617 28.3982 103.617 24.5708C103.617 20.7434 106.216 17.8477 110.119 17.8477C113.148 17.8477 115.579 19.4077 115.99 22.3982H112.908C112.516 21.2108 111.534 20.4877 110.122 20.4877C108.003 20.4877 106.557 22.234 106.557 24.574C106.557 27.0434 108.155 28.5876 110.122 28.5876C111.663 28.5876 112.759 27.8456 113.113 26.7498H116.214C115.822 29.6677 113.186 31.2277 110.122 31.2277" fill="#14192F"/>
</g>
</g>
</g>
<defs>
<clipPath id="clip0_441_14498">
<rect width="118.105" height="48" fill="white"/>
</clipPath>
</defs>
</svg>
