<svg width="25" height="25" viewBox="0 0 18 13" fill="none" xmlns="http://www.w3.org/2000/svg">
<path d="M9 10C9.97222 10 10.7986 9.65972 11.4792 8.97917C12.1597 8.29861 12.5 7.47222 12.5 6.5C12.5 5.52778 12.1597 4.70139 11.4792 4.02083C10.7986 3.34028 9.97222 3 9 3C8.02778 3 7.20139 3.34028 6.52083 4.02083C5.84028 4.70139 5.5 5.52778 5.5 6.5C5.5 7.47222 5.84028 8.29861 6.52083 8.97917C7.20139 9.65972 8.02778 10 9 10ZM9 8.5C8.44444 8.5 7.97222 8.30556 7.58333 7.91667C7.19444 7.52778 7 7.05556 7 6.5C7 5.94444 7.19444 5.47222 7.58333 5.08333C7.97222 4.69444 8.44444 4.5 9 4.5C9.55556 4.5 10.0278 4.69444 10.4167 5.08333C10.8056 5.47222 11 5.94444 11 6.5C11 7.05556 10.8056 7.52778 10.4167 7.91667C10.0278 8.30556 9.55556 8.5 9 8.5ZM9 12.5C7.0195 12.5 5.21535 11.9549 3.58754 10.8646C1.95974 9.77431 0.763889 8.31944 0 6.5C0.763889 4.68056 1.95974 3.22569 3.58754 2.13542C5.21535 1.04514 7.0195 0.5 9 0.5C10.9805 0.5 12.7847 1.04514 14.4125 2.13542C16.0403 3.22569 17.2361 4.68056 18 6.5C17.2361 8.31944 16.0403 9.77431 14.4125 10.8646C12.7847 11.9549 10.9805 12.5 9 12.5ZM9 11C10.5556 11 11.9931 10.5972 13.3125 9.79167C14.6319 8.98611 15.6458 7.88889 16.3542 6.5C15.6458 5.11111 14.6319 4.01389 13.3125 3.20833C11.9931 2.40278 10.5556 2 9 2C7.44444 2 6.00694 2.40278 4.6875 3.20833C3.36806 4.01389 2.35417 5.11111 1.64583 6.5C2.35417 7.88889 3.36806 8.98611 4.6875 9.79167C6.00694 10.5972 7.44444 11 9 11Z" fill="#001232"/>
</svg>
