<svg width="17" height="16" viewBox="0 0 17 16" fill="none" xmlns="http://www.w3.org/2000/svg">
<path fill-rule="evenodd" clip-rule="evenodd" d="M14.1 2.3C12.6 0.8 10.6 0 8.5 0C4.1 0 0.5 3.6 0.5 8C0.5 9.4 0.900006 10.8 1.60001 12L0.5 16L4.70001 14.9C5.90001 15.5 7.2 15.9 8.5 15.9C12.9 15.9 16.5 12.3 16.5 7.9C16.5 5.8 15.6 3.8 14.1 2.3ZM8.5 14.6C7.3 14.6 6.10001 14.3 5.10001 13.7L4.89999 13.6L2.39999 14.3L3.10001 11.9L2.89999 11.6C2.19999 10.5 1.89999 9.3 1.89999 8.1C1.89999 4.5 4.9 1.5 8.5 1.5C10.3 1.5 11.9 2.2 13.2 3.4C14.5 4.7 15.1 6.3 15.1 8.1C15.1 11.6 12.2 14.6 8.5 14.6ZM12.1 9.6C11.9 9.5 10.9 9 10.7 9C10.5 8.9 10.4 8.9 10.3 9.1C10.2 9.3 9.80001 9.7 9.70001 9.9C9.60001 10 9.49999 10 9.29999 10C9.09999 9.9 8.50001 9.7 7.70001 9C7.10001 8.5 6.70001 7.8 6.60001 7.6C6.50001 7.4 6.60001 7.3 6.70001 7.2C6.80001 7.1 6.9 7 7 6.9C7.1 6.8 7.10001 6.7 7.20001 6.6C7.30001 6.5 7.20001 6.4 7.20001 6.3C7.20001 6.2 6.80001 5.2 6.60001 4.8C6.50001 4.5 6.30001 4.5 6.20001 4.5C6.10001 4.5 5.99999 4.5 5.79999 4.5C5.69999 4.5 5.49999 4.5 5.29999 4.7C5.09999 4.9 4.60001 5.4 4.60001 6.4C4.60001 7.4 5.29999 8.3 5.39999 8.5C5.49999 8.6 6.79999 10.7 8.79999 11.5C10.5 12.2 10.8 12 11.2 12C11.6 12 12.4 11.5 12.5 11.1C12.7 10.6 12.7 10.2 12.6 10.2C12.5 9.7 12.3 9.7 12.1 9.6Z" fill="white"/>
</svg>
