<svg width="16" height="17" viewBox="0 0 16 17" fill="none" xmlns="http://www.w3.org/2000/svg">
<path d="M8 11C9.38071 11 10.5 9.88071 10.5 8.5C10.5 7.11929 9.38071 6 8 6C6.61929 6 5.5 7.11929 5.5 8.5C5.5 9.88071 6.61929 11 8 11Z" stroke="white" stroke-miterlimit="10"/>
<path d="M10.75 2.75H5.25C3.59315 2.75 2.25 4.09315 2.25 5.75V11.25C2.25 12.9069 3.59315 14.25 5.25 14.25H10.75C12.4069 14.25 13.75 12.9069 13.75 11.25V5.75C13.75 4.09315 12.4069 2.75 10.75 2.75Z" stroke="white" stroke-linecap="round" stroke-linejoin="round"/>
<path d="M11.25 6C11.6642 6 12 5.66421 12 5.25C12 4.83579 11.6642 4.5 11.25 4.5C10.8358 4.5 10.5 4.83579 10.5 5.25C10.5 5.66421 10.8358 6 11.25 6Z" fill="white"/>
</svg>
