<svg width="12" height="12" viewBox="0 0 12 12" fill="none" xmlns="http://www.w3.org/2000/svg">
<path d="M3.59922 3.06109V3.56109C3.77705 3.56109 3.9415 3.46664 4.03111 3.31303L3.59922 3.06109ZM4.43922 1.62109V1.12109C4.26138 1.12109 4.09693 1.21555 4.00733 1.36916L4.43922 1.62109ZM7.55922 1.62109L7.99111 1.36916C7.9015 1.21555 7.73705 1.12109 7.55922 1.12109V1.62109ZM8.39922 3.06109L7.96733 3.31303C8.05693 3.46664 8.22138 3.56109 8.39922 3.56109V3.06109ZM1.69922 9.18109V4.26109H0.699219V9.18109H1.69922ZM2.39922 3.56109H3.59922V2.56109H2.39922V3.56109ZM4.03111 3.31303L4.87111 1.87303L4.00733 1.36916L3.16733 2.80916L4.03111 3.31303ZM4.43922 2.12109H7.55922V1.12109H4.43922V2.12109ZM7.12733 1.87303L7.96733 3.31303L8.83111 2.80916L7.99111 1.36916L7.12733 1.87303ZM8.39922 3.56109H9.59922V2.56109H8.39922V3.56109ZM10.2992 4.26109V9.18109H11.2992V4.26109H10.2992ZM10.2992 9.18109C10.2992 9.56769 9.98582 9.88109 9.59922 9.88109V10.8811C10.5381 10.8811 11.2992 10.12 11.2992 9.18109H10.2992ZM9.59922 3.56109C9.98582 3.56109 10.2992 3.87449 10.2992 4.26109H11.2992C11.2992 3.32221 10.5381 2.56109 9.59922 2.56109V3.56109ZM1.69922 4.26109C1.69922 3.87449 2.01262 3.56109 2.39922 3.56109V2.56109C1.46034 2.56109 0.699219 3.32221 0.699219 4.26109H1.69922ZM2.39922 9.88109C2.01262 9.88109 1.69922 9.56769 1.69922 9.18109H0.699219C0.699219 10.12 1.46033 10.8811 2.39922 10.8811V9.88109ZM7.29922 6.42109C7.29922 7.13906 6.71719 7.72109 5.99922 7.72109V8.72109C7.26947 8.72109 8.29922 7.69135 8.29922 6.42109H7.29922ZM5.99922 7.72109C5.28125 7.72109 4.69922 7.13906 4.69922 6.42109H3.69922C3.69922 7.69135 4.72896 8.72109 5.99922 8.72109V7.72109ZM4.69922 6.42109C4.69922 5.70312 5.28125 5.12109 5.99922 5.12109V4.12109C4.72896 4.12109 3.69922 5.15084 3.69922 6.42109H4.69922ZM5.99922 5.12109C6.71719 5.12109 7.29922 5.70312 7.29922 6.42109H8.29922C8.29922 5.15084 7.26947 4.12109 5.99922 4.12109V5.12109ZM9.59922 9.88109H2.39922V10.8811H9.59922V9.88109Z" fill="white"/>
</svg>
