<svg width="18" height="18" viewBox="0 0 20 21" fill="none" xmlns="http://www.w3.org/2000/svg">
<path d="M18.8 10.707C18.8 10.057 18.7417 9.43203 18.6333 8.83203H10V12.382H14.9333C14.7167 13.5237 14.0667 14.4904 13.0917 15.1404V17.4487H16.0667C17.8 15.8487 18.8 13.4987 18.8 10.707Z" fill="#4285F4"/>
<path d="M9.99974 19.6667C12.4747 19.6667 14.5497 18.85 16.0664 17.45L13.0914 15.1417C12.2747 15.6917 11.2331 16.025 9.99974 16.025C7.61641 16.025 5.59141 14.4167 4.86641 12.25H1.81641V14.6167C3.32474 17.6083 6.41641 19.6667 9.99974 19.6667Z" fill="#34A853"/>
<path d="M4.86536 12.2426C4.68203 11.6926 4.5737 11.1092 4.5737 10.5009C4.5737 9.89258 4.68203 9.30924 4.86536 8.75924V6.39258H1.81536C1.19036 7.62591 0.832031 9.01758 0.832031 10.5009C0.832031 11.9842 1.19036 13.3759 1.81536 14.6092L4.19036 12.7592L4.86536 12.2426Z" fill="#FBBC05"/>
<path d="M9.99974 4.98203C11.3497 4.98203 12.5497 5.4487 13.5081 6.3487L16.1331 3.7237C14.5414 2.24036 12.4747 1.33203 9.99974 1.33203C6.41641 1.33203 3.32474 3.39036 1.81641 6.39036L4.86641 8.75703C5.59141 6.59036 7.61641 4.98203 9.99974 4.98203Z" fill="#EA4335"/>
</svg>
