<svg width="30" height="30" viewBox="0 0 20 21" fill="none" xmlns="http://www.w3.org/2000/svg">
<mask id="mask0_436_3771" style="mask-type:alpha" maskUnits="userSpaceOnUse" x="0" y="0" width="20" height="21">
<rect y="0.5" width="20" height="20" fill="#D9D9D9"/>
</mask>
<g mask="url(#mask0_436_3771)">
<path d="M10 14C10.9722 14 11.7986 13.6597 12.4792 12.9792C13.1597 12.2986 13.5 11.4722 13.5 10.5C13.5 9.52778 13.1597 8.70139 12.4792 8.02083C11.7986 7.34028 10.9722 7 10 7C9.02778 7 8.20139 7.34028 7.52083 8.02083C6.84028 8.70139 6.5 9.52778 6.5 10.5C6.5 11.4722 6.84028 12.2986 7.52083 12.9792C8.20139 13.6597 9.02778 14 10 14ZM10 12.5C9.44444 12.5 8.97222 12.3056 8.58333 11.9167C8.19444 11.5278 8 11.0556 8 10.5C8 9.94444 8.19444 9.47222 8.58333 9.08333C8.97222 8.69444 9.44444 8.5 10 8.5C10.5556 8.5 11.0278 8.69444 11.4167 9.08333C11.8056 9.47222 12 9.94444 12 10.5C12 11.0556 11.8056 11.5278 11.4167 11.9167C11.0278 12.3056 10.5556 12.5 10 12.5ZM10 16.5C8.0195 16.5 6.21535 15.9549 4.58754 14.8646C2.95974 13.7743 1.76389 12.3194 1 10.5C1.76389 8.68056 2.95974 7.22569 4.58754 6.13542C6.21535 5.04514 8.0195 4.5 10 4.5C11.9805 4.5 13.7847 5.04514 15.4125 6.13542C17.0403 7.22569 18.2361 8.68056 19 10.5C18.2361 12.3194 17.0403 13.7743 15.4125 14.8646C13.7847 15.9549 11.9805 16.5 10 16.5ZM10 15C11.5556 15 12.9931 14.5972 14.3125 13.7917C15.6319 12.9861 16.6458 11.8889 17.3542 10.5C16.6458 9.11111 15.6319 8.01389 14.3125 7.20833C12.9931 6.40278 11.5556 6 10 6C8.44444 6 7.00694 6.40278 5.6875 7.20833C4.36806 8.01389 3.35417 9.11111 2.64583 10.5C3.35417 11.8889 4.36806 12.9861 5.6875 13.7917C7.00694 14.5972 8.44444 15 10 15Z" fill="#8D979C"/>
</g>
</svg>
