<svg width="10" height="10" viewBox="0 0 10 10" fill="none" xmlns="http://www.w3.org/2000/svg">
<path fill-rule="evenodd" clip-rule="evenodd" d="M0.529247 0.529247C0.789596 0.268897 1.21171 0.268897 1.47206 0.529247L5.00065 4.05784L8.52925 0.529247C8.7896 0.268897 9.21171 0.268897 9.47206 0.529247C9.73241 0.789596 9.73241 1.21171 9.47206 1.47206L5.94346 5.00065L9.47206 8.52925C9.73241 8.7896 9.73241 9.21171 9.47206 9.47206C9.21171 9.73241 8.7896 9.73241 8.52925 9.47206L5.00065 5.94346L1.47206 9.47206C1.21171 9.73241 0.789596 9.73241 0.529247 9.47206C0.268897 9.21171 0.268897 8.7896 0.529247 8.52925L4.05784 5.00065L0.529247 1.47206C0.268897 1.21171 0.268897 0.789596 0.529247 0.529247Z" fill="#6C7275"/>
</svg>
