<svg width="14" height="16" viewBox="0 0 14 16" fill="none" xmlns="http://www.w3.org/2000/svg">
<path d="M5.79167 10.5H8.20833L7.75 7.8125C7.98256 7.68831 8.16569 7.50822 8.29942 7.27223C8.43314 7.03626 8.5 6.77544 8.5 6.48979C8.5 6.07993 8.35269 5.72917 8.05808 5.4375C7.76346 5.14583 7.40929 5 6.99558 5C6.58186 5 6.22917 5.14688 5.9375 5.44063C5.64583 5.73438 5.5 6.0875 5.5 6.5C5.5 6.78344 5.56686 7.04225 5.70058 7.27642C5.83431 7.51057 6.01744 7.68926 6.25 7.8125L5.79167 10.5ZM7 16C5.125 15.5417 3.57292 14.4803 2.34375 12.8158C1.11458 11.1513 0.5 9.30297 0.5 7.27083V2.5L7 0L13.5 2.5V7.27083C13.5 9.30297 12.8854 11.1513 11.6562 12.8158C10.4271 14.4803 8.875 15.5417 7 16ZM7 14.4375C8.44444 13.9896 9.63889 13.0938 10.5833 11.75C11.5278 10.4062 12 8.91319 12 7.27083V3.52083L7 1.60417L2 3.52083V7.27083C2 8.91319 2.47222 10.4062 3.41667 11.75C4.36111 13.0938 5.55556 13.9896 7 14.4375Z" fill="#0051FF"/>
</svg>
