<svg width="16" height="17" viewBox="0 0 16 17" fill="none" xmlns="http://www.w3.org/2000/svg">
<path d="M8 11.4707C9.38071 11.4707 10.5 10.3514 10.5 8.9707C10.5 7.58999 9.38071 6.4707 8 6.4707C6.61929 6.4707 5.5 7.58999 5.5 8.9707C5.5 10.3514 6.61929 11.4707 8 11.4707Z" stroke="white" stroke-miterlimit="10"/>
<path d="M10.75 3.2207H5.25C3.59315 3.2207 2.25 4.56385 2.25 6.2207V11.7207C2.25 13.3776 3.59315 14.7207 5.25 14.7207H10.75C12.4069 14.7207 13.75 13.3776 13.75 11.7207V6.2207C13.75 4.56385 12.4069 3.2207 10.75 3.2207Z" stroke="white" stroke-linecap="round" stroke-linejoin="round"/>
<path d="M11.25 6.4707C11.6642 6.4707 12 6.13492 12 5.7207C12 5.30649 11.6642 4.9707 11.25 4.9707C10.8358 4.9707 10.5 5.30649 10.5 5.7207C10.5 6.13492 10.8358 6.4707 11.25 6.4707Z" fill="white"/>
</svg>
