<svg width="25" height="25" viewBox="0 0 16 13" fill="none" xmlns="http://www.w3.org/2000/svg">
<path d="M1.5 12.5C1.0875 12.5 0.734375 12.353 0.440625 12.0591C0.146875 11.7652 0 11.4119 0 10.9992V1.9941C0 1.58137 0.146875 1.22917 0.440625 0.9375C0.734375 0.645833 1.0875 0.5 1.5 0.5H14.5C14.9125 0.5 15.2656 0.646958 15.5594 0.940875C15.8531 1.23479 16 1.58811 16 2.00083V11.0059C16 11.4186 15.8531 11.7708 15.5594 12.0625C15.2656 12.3542 14.9125 12.5 14.5 12.5H1.5ZM8 7.5L1.5 3.77083V11H14.5V3.77083L8 7.5ZM8 5.72917L14.5 2H1.5L8 5.72917ZM1.5 3.77083V2V11V3.77083Z" fill="#8D979C"/>
</svg>
