<svg width="25" height="25" viewBox="0 0 16 17" fill="none" xmlns="http://www.w3.org/2000/svg">
<path d="M2.9375 12.5625C3.6875 12.0347 4.48958 11.6424 5.34375 11.3854C6.19792 11.1285 7.08333 11 8 11C8.91667 11 9.80208 11.1285 10.6562 11.3854C11.5104 11.6424 12.3125 12.0347 13.0625 12.5625C13.5486 11.9931 13.9097 11.3611 14.1458 10.6667C14.3819 9.97222 14.5 9.25 14.5 8.5C14.5 6.69896 13.8665 5.16536 12.5994 3.89921C11.3323 2.63307 9.79758 2 7.99521 2C6.19285 2 4.65972 2.63307 3.39583 3.89921C2.13194 5.16536 1.5 6.69896 1.5 8.5C1.5 9.25 1.61806 9.97222 1.85417 10.6667C2.09028 11.3611 2.45139 11.9931 2.9375 12.5625ZM8 10C7.16667 10 6.45833 9.70833 5.875 9.125C5.29167 8.54167 5 7.83333 5 7C5 6.16667 5.29167 5.45833 5.875 4.875C6.45833 4.29167 7.16667 4 8 4C8.83333 4 9.54167 4.29167 10.125 4.875C10.7083 5.45833 11 6.16667 11 7C11 7.83333 10.7083 8.54167 10.125 9.125C9.54167 9.70833 8.83333 10 8 10ZM8.00575 16.5C6.9047 16.5 5.86806 16.2917 4.89583 15.875C3.92361 15.4583 3.07292 14.8854 2.34375 14.1562C1.61458 13.4271 1.04167 12.5767 0.625 11.605C0.208333 10.6334 0 9.59519 0 8.49046C0 7.38571 0.208333 6.35069 0.625 5.38542C1.04167 4.42014 1.61458 3.57292 2.34375 2.84375C3.07292 2.11458 3.92332 1.54167 4.89496 1.125C5.86661 0.708333 6.90481 0.5 8.00954 0.5C9.11429 0.5 10.1493 0.708333 11.1146 1.125C12.0799 1.54167 12.9271 2.11458 13.6562 2.84375C14.3854 3.57292 14.9583 4.42169 15.375 5.39008C15.7917 6.35849 16 7.39321 16 8.49425C16 9.59531 15.7917 10.6319 15.375 11.6042C14.9583 12.5764 14.3854 13.4271 13.6562 14.1562C12.9271 14.8854 12.0783 15.4583 11.1099 15.875C10.1415 16.2917 9.10679 16.5 8.00575 16.5ZM8 15C8.72222 15 9.41667 14.8854 10.0833 14.6562C10.75 14.4271 11.375 14.0903 11.9583 13.6458C11.3611 13.2708 10.7292 12.9861 10.0625 12.7917C9.39583 12.5972 8.70833 12.5 8 12.5C7.29167 12.5 6.60069 12.5938 5.92708 12.7812C5.25347 12.9688 4.625 13.2569 4.04167 13.6458C4.625 14.0903 5.25 14.4271 5.91667 14.6562C6.58333 14.8854 7.27778 15 8 15ZM8 8.5C8.41667 8.5 8.77083 8.35417 9.0625 8.0625C9.35417 7.77083 9.5 7.41667 9.5 7C9.5 6.58333 9.35417 6.22917 9.0625 5.9375C8.77083 5.64583 8.41667 5.5 8 5.5C7.58333 5.5 7.22917 5.64583 6.9375 5.9375C6.64583 6.22917 6.5 6.58333 6.5 7C6.5 7.41667 6.64583 7.77083 6.9375 8.0625C7.22917 8.35417 7.58333 8.5 8 8.5Z" fill="#001232"/>
</svg>
