<svg width="222" height="86" viewBox="0 0 222 86" fill="none" xmlns="http://www.w3.org/2000/svg">
<mask id="mask0_420_1870" style="mask-type:alpha" maskUnits="userSpaceOnUse" x="0" y="0" width="223" height="86">
<g clip-path="url(#clip0_420_1870)">
<mask id="mask1_420_1870" style="mask-type:luminance" maskUnits="userSpaceOnUse" x="-473" y="-161" width="1053" height="592">
<path d="M579.477 -160.59H-472.126V430.937H579.477V-160.59Z" fill="white"/>
</mask>
<g mask="url(#mask1_420_1870)">
<path d="M245.101 -33.6973H-39.1602V120.757H245.101V-33.6973Z" stroke="#B3B3B3" stroke-width="0.54771" stroke-miterlimit="10"/>
<mask id="mask2_420_1870" style="mask-type:luminance" maskUnits="userSpaceOnUse" x="-473" y="-161" width="1053" height="592">
<path d="M579.478 -160.59H-472.125V430.937H579.478V-160.59Z" fill="white"/>
</mask>
<g mask="url(#mask2_420_1870)">
<path d="M21.7397 13.4111C11.3606 19.436 4.38281 30.664 4.38281 43.5297C17.2485 43.5297 28.4766 36.5519 34.5014 26.1728C39.2829 17.9352 29.9773 8.63512 21.7452 13.4111" fill="#3358A5"/>
<path d="M69.2983 26.0913C63.2789 15.7122 52.0454 8.73438 39.1797 8.73438C39.1797 21.6001 46.1575 32.8281 56.5366 38.853C64.7741 43.6345 74.0743 34.3289 69.2983 26.0913Z" fill="#3358A5"/>
<path d="M9.06056 60.9698C15.0799 71.3489 26.3135 78.3267 39.1792 78.3267C39.1792 65.461 32.2013 54.233 21.8222 48.2081C13.5847 43.4266 4.28454 52.7322 9.06605 60.9643" fill="#3358A5"/>
<path d="M73.9742 43.5312C61.1085 43.5312 49.8749 50.5091 43.8556 60.8882C39.0741 69.1257 48.3797 78.4259 56.6118 73.6498C66.9909 67.6305 73.9687 56.397 73.9687 43.5312" fill="#3358A5"/>
<path d="M103.54 22.384C103.217 23.1563 102.083 23.7533 100.823 23.7533C98.1064 23.7533 96.9727 21.8856 96.9727 19.2073C96.9727 16.1565 98.5665 14.4258 101.195 14.4258C103.091 14.4258 104.372 15.2583 104.531 17.4272L103.436 17.5423C103.288 16.0853 102.565 15.4281 101.157 15.4281C99.2511 15.4281 98.1557 16.7755 98.1557 19.1142C98.1557 21.902 99.3771 22.7893 101.048 22.7893C102.718 22.7893 103.452 21.6939 103.452 20.6368V19.8645H101.059V18.928H104.531V23.6109H103.698L103.54 22.3895V22.384Z" fill="#14192F"/>
<path d="M109.932 18.2471C109.132 18.1376 108.19 18.4607 107.664 18.9427V23.5983H106.53V17.1955H107.478L107.565 18.1157C108.124 17.3544 108.798 17.0586 109.696 17.0586C109.773 17.0586 109.822 17.0586 109.932 17.0695V18.2416V18.2471Z" fill="#14192F"/>
<path d="M111.04 17.2012H112.173V21.3747C112.173 22.262 112.387 22.744 113.329 22.744C114.063 22.744 114.846 22.273 115.186 21.9608V17.2012H116.32V23.6039H115.334L115.257 22.87C114.633 23.3793 113.877 23.7299 112.99 23.7299C111.631 23.7299 111.034 22.985 111.034 21.55V17.2012H111.04Z" fill="#14192F"/>
<path d="M119.429 22.1582C119.703 22.3718 120.338 22.7935 121.072 22.7935C122.293 22.7935 122.742 21.7748 122.742 20.2412C122.742 18.7076 122.244 18.012 121.225 18.012C120.513 18.012 119.807 18.4502 119.434 18.8226V22.1582H119.429ZM118.295 17.2014H119.281L119.341 17.9353C119.927 17.4095 120.65 17.0645 121.559 17.0645C122.907 17.0645 123.903 17.897 123.903 20.2521C123.903 22.7552 122.671 23.752 121.236 23.752C120.464 23.752 119.856 23.4781 119.396 23.1276V26.2386H118.3V17.1959L118.295 17.2014Z" fill="#14192F"/>
<path d="M129.929 20.3503C129.929 18.5812 129.304 17.9952 128.198 17.9952C127.092 17.9952 126.303 18.6689 126.303 20.3722C126.303 22.0756 126.9 22.8369 128.149 22.8369C129.255 22.8369 129.929 22.1633 129.929 20.3449M125.136 20.4215C125.136 18.3567 126.204 17.0586 128.247 17.0586C130.29 17.0586 131.112 18.3676 131.112 20.2736C131.112 22.3769 130.241 23.7461 128.083 23.7461C125.925 23.7461 125.131 22.3166 125.131 20.4215" fill="#14192F"/>
</g>
<path d="M122.24 55.1307H117.404V41.1148H117.113L112.091 52.2278H107.161L102.133 41.1148H101.843V55.1307H96.9795V31.9297H103.004L109.511 46.915H109.801L116.242 31.9297H122.24V55.1307Z" fill="#14192F"/>
<path d="M131.11 31.9297H126.115V55.1252H131.11V31.9297Z" fill="#14192F"/>
<mask id="mask3_420_1870" style="mask-type:luminance" maskUnits="userSpaceOnUse" x="-473" y="-161" width="1053" height="592">
<path d="M579.478 -160.59H-472.125V430.937H579.478V-160.59Z" fill="white"/>
</mask>
<g mask="url(#mask3_420_1870)">
<path d="M146.273 55.1291C139.153 55.1291 134.996 50.2326 134.996 43.5943C134.996 36.9561 139.504 31.9336 146.273 31.9336C151.526 31.9336 155.743 34.6393 156.455 39.8261H151.11C150.431 37.7667 148.727 36.5124 146.279 36.5124C142.604 36.5124 140.095 39.5413 140.095 43.5998C140.095 47.8829 142.867 50.5612 146.279 50.5612C148.952 50.5612 150.852 49.2741 151.466 47.3735H156.844C156.165 52.4344 151.592 55.1401 146.279 55.1401" fill="#14192F"/>
<path d="M168.422 50.5518C170.032 50.5518 170.87 49.555 170.87 47.6216V31.9297H175.832V47.7476C175.832 52.5784 172.902 55.1252 168.422 55.1252C163.525 55.1252 160.786 52.3209 160.721 47.8133H165.94C166.039 49.4235 166.778 50.5518 168.422 50.5518Z" fill="#14192F"/>
<path d="M190.993 55.1291C183.873 55.1291 179.716 50.2326 179.716 43.5943C179.716 36.9561 184.223 31.9336 190.993 31.9336C196.246 31.9336 200.463 34.6393 201.175 39.8261H195.829C195.15 37.7667 193.447 36.5124 190.999 36.5124C187.323 36.5124 184.815 39.5413 184.815 43.5998C184.815 47.8829 187.586 50.5612 190.999 50.5612C193.671 50.5612 195.572 49.2741 196.185 47.3735H201.564C200.885 52.4344 196.311 55.1401 190.999 55.1401" fill="#14192F"/>
</g>
</g>
</g>
</mask>
<g mask="url(#mask0_420_1870)">
<rect x="-41.626" y="-11.1562" width="315.664" height="105.799" fill="white"/>
</g>
<defs>
<clipPath id="clip0_420_1870">
<rect width="222.005" height="84.9863" fill="white" transform="translate(0 0.984375)"/>
</clipPath>
</defs>
</svg>
