<svg width="24" height="24" viewBox="0 0 24 24" fill="none" xmlns="http://www.w3.org/2000/svg">
<path d="M4.66576 5.28382C4.20119 4.98517 3.58247 5.11967 3.28382 5.58424C2.98517 6.04881 3.11967 6.66753 3.58424 6.96618L4.66576 5.28382ZM12 11.1875L11.4592 12.0287C11.7793 12.2344 12.1883 12.2407 12.5145 12.045L12 11.1875ZM20.952 6.98249C21.4256 6.69834 21.5791 6.08408 21.295 5.6105C21.0108 5.13692 20.3966 4.98336 19.923 5.26751L20.952 6.98249ZM4 16.0543V7.25H2V16.0543H4ZM5.25 6H18.75V4H5.25V6ZM20 7.25V16.0543H22V7.25H20ZM20 16.0543C20 16.7447 19.4404 17.3044 18.75 17.3044V19.3044C20.5449 19.3044 22 17.8493 22 16.0543H20ZM18.75 6C19.4404 6 20 6.55964 20 7.25H22C22 5.45508 20.5449 4 18.75 4V6ZM4 7.25C4 6.55964 4.55965 6 5.25 6V4C3.45507 4 2 5.45508 2 7.25H4ZM5.25 17.3044C4.55964 17.3044 4 16.7447 4 16.0543H2C2 17.8493 3.45507 19.3044 5.25 19.3044V17.3044ZM3.58424 6.96618L11.4592 12.0287L12.5408 10.3463L4.66576 5.28382L3.58424 6.96618ZM12.5145 12.045L20.952 6.98249L19.923 5.26751L11.4855 10.33L12.5145 12.045ZM18.75 17.3044H5.25V19.3044H18.75V17.3044Z" fill="#0051FF"/>
</svg>
